<mxfile host="app.diagrams.net" modified="2023-04-05T00:08:57.036Z" agent="Mozilla/5.0 (Macintosh; Intel Mac OS X 10_15_7) AppleWebKit/537.36 (KHTML, like Gecko) Chrome/111.0.0.0 Safari/537.36" version="21.1.1" etag="myQuF1dzXZto73tSPAHA" type="github">
  <diagram name="Page-1" id="bntXyxhL_aR0zdt6fx8l">
    <mxGraphModel>
      <root>
        <mxCell id="0" />
        <mxCell id="1" parent="0" />
      </root>
    </mxGraphModel>
  </diagram>
</mxfile>
